<svg width="36" height="36" viewBox="0 0 36 36" fill="none" xmlns="http://www.w3.org/2000/svg">
<circle cx="18" cy="18" r="18" fill="url(#paint0_linear)"/>
<g clip-path="url(#clip0)">
<path d="M22.0155 9H13.9842C13.386 9 12.8994 9.4866 12.8994 10.0845V10.8H23.1V10.0845C23.1 9.4866 22.6134 9 22.0155 9ZM19.5 10.5H16.5C16.3345 10.5 16.2001 10.3656 16.2001 10.2C16.2001 10.0344 16.3345 9.90004 16.5 9.90004H19.5C19.6656 9.90004 19.8 10.0344 19.8 10.2C19.8 10.3656 19.6656 10.5 19.5 10.5ZM21.6 10.5H21.3C21.1344 10.5 21 10.3656 21 10.2C21 10.0344 21.1344 9.90004 21.3 9.90004H21.6C21.7656 9.90004 21.9 10.0344 21.9 10.2C21.9 10.3656 21.7656 10.5 21.6 10.5Z" fill="white"/>
<path d="M18.372 24.9H17.6271C17.5017 24.9 17.3994 25.002 17.3994 25.1277V25.2726C17.3994 25.398 17.5014 25.5 17.6271 25.5H18.372C18.4974 25.5 18.5994 25.398 18.5994 25.2726V25.1277C18.5997 25.002 18.4974 24.9 18.372 24.9Z" fill="white"/>
<path d="M23.1004 11.4H12.9004V23.4H23.1004V11.4Z" fill="white"/>
<path d="M12.9004 24.0001V25.9156C12.9004 26.5135 13.387 27.0001 13.9849 27.0001H22.0162C22.6141 27.0001 23.1007 26.5135 23.1007 25.9156V24.0001H12.9004ZM19.2004 25.2727C19.2004 25.729 18.8293 26.1001 18.373 26.1001H17.6281C17.1718 26.1001 16.8004 25.729 16.8004 25.2727V25.1278C16.8004 24.6715 17.1718 24.3001 17.6281 24.3001H18.373C18.8293 24.3001 19.2004 24.6715 19.2004 25.1278V25.2727Z" fill="white"/>
</g>
<defs>
<linearGradient id="paint0_linear" x1="18" y1="0" x2="18" y2="36" gradientUnits="userSpaceOnUse">
<stop stop-color="#813468"/>
<stop offset="0.307292" stop-color="#7A618D"/>
<stop offset="0.307392" stop-color="#7A618D"/>
<stop offset="0.697917" stop-color="#70A3C2"/>
<stop offset="0.760417" stop-color="#70A3C2"/>
<stop offset="1" stop-color="#6BC6DF"/>
</linearGradient>
<clipPath id="clip0">
<rect width="18" height="18" fill="white" transform="translate(9 9)"/>
</clipPath>
</defs>
</svg>
