<svg width="265" height="63" viewBox="0 0 265 63" fill="none" xmlns="http://www.w3.org/2000/svg">
<path d="M0.96 61V5H16.48V27.72L35.76 5H54.16L32.96 29.08L54.88 61H36.24L22.16 40.2L16.48 46.52V61H0.96ZM79.9575 62.04C73.1308 62.04 67.5575 59.96 63.2375 55.8C58.9175 51.64 56.7575 46.1733 56.7575 39.4C56.7575 33 58.8108 27.64 62.9175 23.32C67.0242 18.9467 72.2508 16.76 78.5975 16.76C85.6908 16.76 91.1042 19 94.8375 23.48C98.5708 27.96 100.438 33.6133 100.438 40.44C100.438 41.8267 100.411 42.8667 100.358 43.56H71.3975C72.6242 48.3067 75.7442 50.68 80.7575 50.68C84.1708 50.68 87.3708 49.2133 90.3575 46.28L98.7575 53.24C94.1175 59.1067 87.8508 62.04 79.9575 62.04ZM71.1575 35.8H86.1975C85.9308 33.4 85.1308 31.5067 83.7975 30.12C82.4642 28.68 80.7575 27.96 78.6775 27.96C76.7042 27.96 75.0508 28.68 73.7175 30.12C72.4375 31.5067 71.5842 33.4 71.1575 35.8ZM106.955 61V17.72H121.675V39.4L136.075 17.72H150.075V61H135.355V39.32L120.955 61H106.955ZM137.755 11.08C135.462 13.16 132.502 14.2 128.875 14.2C125.248 14.2 122.262 13.16 119.915 11.08C117.622 9 116.208 6.06666 115.675 2.28L123.595 0.839997C124.662 3.93333 126.422 5.48 128.875 5.48C131.328 5.48 133.088 3.93333 134.155 0.839997L142.075 2.28C141.542 6.06666 140.102 9 137.755 11.08ZM179.085 62.04C172.632 62.04 167.245 59.8533 162.925 55.48C158.605 51.0533 156.445 45.6933 156.445 39.4C156.445 33.16 158.632 27.8533 163.005 23.48C167.378 19.0533 172.925 16.84 179.645 16.84C187.912 16.84 194.072 20.0667 198.125 26.52L187.965 33.88C185.938 31.0533 183.325 29.64 180.125 29.64C177.405 29.64 175.245 30.5733 173.645 32.44C172.045 34.3067 171.245 36.6267 171.245 39.4C171.245 42.2267 172.045 44.5733 173.645 46.44C175.245 48.3067 177.325 49.24 179.885 49.24C181.592 49.24 183.032 48.8667 184.205 48.12C185.432 47.3733 186.712 46.2267 188.045 44.68L198.365 52.12C193.885 58.7333 187.458 62.04 179.085 62.04ZM249.032 61V17.72H264.232V61H249.032ZM203.752 61V17.72H218.952V31.32H226.312C231.645 31.32 235.939 32.6 239.192 35.16C242.499 37.6667 244.152 41.2933 244.152 46.04C244.152 50.68 242.605 54.3333 239.512 57C236.419 59.6667 232.232 61 226.952 61H203.752ZM218.952 50.28H223.672C227.565 50.28 229.512 48.7067 229.512 45.56C229.512 44.1733 228.979 43.08 227.912 42.28C226.899 41.48 225.485 41.08 223.672 41.08H218.952V50.28Z" fill="url(#paint0_angular)" fill-opacity="0.2"/>
<defs>
<radialGradient id="paint0_angular" cx="0" cy="0" r="1" gradientUnits="userSpaceOnUse" gradientTransform="translate(132.5 38.5) rotate(90) scale(38.5 136.5)">
<stop stop-color="#81356A"/>
<stop offset="1" stop-color="#6BC5DE"/>
</radialGradient>
</defs>
</svg>
