<svg width="403" height="58" viewBox="0 0 403 58" fill="none" xmlns="http://www.w3.org/2000/svg">
<path d="M0.96 56V-3.8147e-06H16.48V22.72L35.76 -3.8147e-06H54.16L32.96 24.08L54.88 56H36.24L22.16 35.2L16.48 41.52V56H0.96ZM80.5975 57.04C73.7708 57.04 68.0908 54.8533 63.5575 50.48C59.0242 46.0533 56.7575 40.6933 56.7575 34.4C56.7575 28.16 59.0242 22.8267 63.5575 18.4C68.1442 13.9733 73.8775 11.76 80.7575 11.76C87.5842 11.76 93.2642 13.9733 97.7975 18.4C102.331 22.7733 104.598 28.1067 104.598 34.4C104.598 40.64 102.304 45.9733 97.7175 50.4C93.1842 54.8267 87.4775 57.04 80.5975 57.04ZM80.7575 44.16C83.4775 44.16 85.6642 43.2267 87.3175 41.36C88.9708 39.4933 89.7975 37.1733 89.7975 34.4C89.7975 31.7333 88.9175 29.44 87.1575 27.52C85.3975 25.6 83.2108 24.64 80.5975 24.64C77.8775 24.64 75.6908 25.5733 74.0375 27.44C72.3842 29.3067 71.5575 31.6267 71.5575 34.4C71.5575 37.0667 72.4375 39.36 74.1975 41.28C75.9575 43.2 78.1442 44.16 80.7575 44.16ZM111.018 56V12.72H126.218V28.08H138.698V12.72H153.898V56H138.698V40.32H126.218V56H111.018ZM171.393 56V24.96H158.753V12.72H199.233V24.96H186.593V56H171.393ZM216.543 56.96C212.276 56.96 208.783 55.7867 206.063 53.44C203.343 51.04 201.983 47.7067 201.983 43.44C201.983 39.0667 203.503 35.7067 206.543 33.36C209.583 31.0133 213.716 29.84 218.943 29.84C222.729 29.84 226.196 30.4 229.343 31.52V30.8C229.343 26.1067 226.463 23.76 220.703 23.76C216.809 23.76 212.836 24.56 208.783 26.16L205.663 15.44C211.103 13.2 216.943 12.08 223.183 12.08C230.649 12.08 236.143 13.84 239.663 17.36C242.756 20.4 244.303 24.9867 244.303 31.12V56H229.263V51.52C226.009 55.1467 221.769 56.96 216.543 56.96ZM221.983 47.44C224.223 47.44 226.036 46.8 227.423 45.52C228.809 44.1867 229.503 42.4533 229.503 40.32V38.32C227.743 37.5733 225.769 37.2 223.582 37.2C221.396 37.2 219.689 37.7067 218.463 38.72C217.236 39.68 216.623 41.0133 216.623 42.72C216.623 44.16 217.103 45.3067 218.063 46.16C219.076 47.0133 220.383 47.44 221.983 47.44ZM252.033 56V12.72H267.233V28.8L278.993 12.72H296.193L281.393 30.48L296.593 56H279.873L271.633 42.16L267.233 47.44V56H252.033ZM309.596 56V24.96H296.956V12.72H337.436V24.96H324.796V56H309.596ZM387.626 56V12.72H402.826V56H387.626ZM342.346 56V12.72H357.546V26.32H364.906C370.239 26.32 374.532 27.6 377.786 30.16C381.092 32.6667 382.746 36.2933 382.746 41.04C382.746 45.68 381.199 49.3333 378.106 52C375.012 54.6667 370.826 56 365.546 56H342.346ZM357.546 45.28H362.266C366.159 45.28 368.106 43.7067 368.106 40.56C368.106 39.1733 367.572 38.08 366.506 37.28C365.492 36.48 364.079 36.08 362.266 36.08H357.546V45.28Z" fill="url(#paint0_angular)" fill-opacity="0.4"/>
<defs>
<radialGradient id="paint0_angular" cx="0" cy="0" r="1" gradientUnits="userSpaceOnUse" gradientTransform="translate(201.5 33.5) rotate(90) scale(38.5 205.5)">
<stop stop-color="#81356A"/>
<stop offset="1" stop-color="#6BC5DE"/>
</radialGradient>
</defs>
</svg>
