<svg width="419" height="69" viewBox="0 0 419 69" fill="none" xmlns="http://www.w3.org/2000/svg">
<path d="M0.96 56V-3.8147e-06H51.12V56H35.6V13.6H16.48V56H0.96ZM72.5581 56.96C68.2915 56.96 64.7981 55.7867 62.0781 53.44C59.3581 51.04 57.9981 47.7067 57.9981 43.44C57.9981 39.0667 59.5181 35.7067 62.5581 33.36C65.5981 31.0133 69.7315 29.84 74.9581 29.84C78.7448 29.84 82.2115 30.4 85.3581 31.52V30.8C85.3581 26.1067 82.4781 23.76 76.7181 23.76C72.8248 23.76 68.8515 24.56 64.7981 26.16L61.6781 15.44C67.1181 13.2 72.9581 12.08 79.1981 12.08C86.6648 12.08 92.1581 13.84 95.6781 17.36C98.7715 20.4 100.318 24.9867 100.318 31.12V56H85.2781V51.52C82.0248 55.1467 77.7848 56.96 72.5581 56.96ZM77.9981 47.44C80.2381 47.44 82.0515 46.8 83.4381 45.52C84.8248 44.1867 85.5181 42.4533 85.5181 40.32V38.32C83.7581 37.5733 81.7848 37.2 79.5981 37.2C77.4115 37.2 75.7048 37.7067 74.4781 38.72C73.2515 39.68 72.6381 41.0133 72.6381 42.72C72.6381 44.16 73.1181 45.3067 74.0781 46.16C75.0915 47.0133 76.3981 47.44 77.9981 47.44ZM108.049 68.8V12.72H123.249V18.48C126.929 14 131.302 11.76 136.369 11.76C141.702 11.76 146.235 13.84 149.969 18C153.702 22.1067 155.569 27.5467 155.569 34.32C155.569 41.1467 153.702 46.64 149.969 50.8C146.289 54.9067 141.782 56.96 136.449 56.96C131.222 56.96 126.822 54.88 123.249 50.72V68.8H108.049ZM131.729 44.24C134.235 44.24 136.342 43.3067 138.049 41.44C139.755 39.5733 140.609 37.1733 140.609 34.24C140.609 31.4133 139.755 29.0933 138.049 27.28C136.342 25.4133 134.235 24.48 131.729 24.48C129.275 24.48 127.195 25.4133 125.489 27.28C123.782 29.1467 122.929 31.52 122.929 34.4C122.929 37.2267 123.782 39.5733 125.489 41.44C127.195 43.3067 129.275 44.24 131.729 44.24ZM171.471 56V24.96H158.831V12.72H199.311V24.96H186.671V56H171.471ZM204.221 56V12.72H219.421V28.08H231.901V12.72H247.101V56H231.901V40.32H219.421V56H204.221ZM276.676 57.04C269.85 57.04 264.276 54.96 259.956 50.8C255.636 46.64 253.476 41.1733 253.476 34.4C253.476 28 255.53 22.64 259.636 18.32C263.743 13.9467 268.97 11.76 275.316 11.76C282.41 11.76 287.823 14 291.556 18.48C295.29 22.96 297.156 28.6133 297.156 35.44C297.156 36.8267 297.13 37.8667 297.076 38.56H268.116C269.343 43.3067 272.463 45.68 277.476 45.68C280.89 45.68 284.09 44.2133 287.076 41.28L295.476 48.24C290.836 54.1067 284.57 57.04 276.676 57.04ZM267.876 30.8H282.916C282.65 28.4 281.85 26.5067 280.516 25.12C279.183 23.68 277.476 22.96 275.396 22.96C273.423 22.96 271.77 23.68 270.436 25.12C269.156 26.5067 268.303 28.4 267.876 30.8ZM303.674 68.8V12.72H318.874V18.48C322.554 14 326.927 11.76 331.994 11.76C337.327 11.76 341.86 13.84 345.594 18C349.327 22.1067 351.194 27.5467 351.194 34.32C351.194 41.1467 349.327 46.64 345.594 50.8C341.914 54.9067 337.407 56.96 332.074 56.96C326.847 56.96 322.447 54.88 318.874 50.72V68.8H303.674ZM327.354 44.24C329.86 44.24 331.967 43.3067 333.674 41.44C335.38 39.5733 336.234 37.1733 336.234 34.24C336.234 31.4133 335.38 29.0933 333.674 27.28C331.967 25.4133 329.86 24.48 327.354 24.48C324.9 24.48 322.82 25.4133 321.114 27.28C319.407 29.1467 318.554 31.52 318.554 34.4C318.554 37.2267 319.407 39.5733 321.114 41.44C322.82 43.3067 324.9 44.24 327.354 44.24ZM403.016 56V12.72H418.216V56H403.016ZM357.736 56V12.72H372.936V26.32H380.296C385.63 26.32 389.923 27.6 393.176 30.16C396.483 32.6667 398.136 36.2933 398.136 41.04C398.136 45.68 396.59 49.3333 393.496 52C390.403 54.6667 386.216 56 380.936 56H357.736ZM372.936 45.28H377.656C381.55 45.28 383.496 43.7067 383.496 40.56C383.496 39.1733 382.963 38.08 381.896 37.28C380.883 36.48 379.47 36.08 377.656 36.08H372.936V45.28Z" fill="url(#paint0_angular)" fill-opacity="0.2"/>
<defs>
<radialGradient id="paint0_angular" cx="0" cy="0" r="1" gradientUnits="userSpaceOnUse" gradientTransform="translate(209.5 33.5) rotate(90) scale(38.5 213.5)">
<stop stop-color="#81356A"/>
<stop offset="1" stop-color="#6BC5DE"/>
</radialGradient>
</defs>
</svg>
