<svg width="96" height="96" viewBox="0 0 96 96" fill="none" xmlns="http://www.w3.org/2000/svg">
<mask id="mask0" mask-type="alpha" maskUnits="userSpaceOnUse" x="0" y="0" width="96" height="96">
<path d="M77 0H0L9.5 9L18 16.5L28 24.5L41 33L50.5 38.5L57 43L73 58.5L84.5 74L96 95.1004V19.5C96 4.3 83.3333 0.166667 77 0Z" fill="#C4C4C4"/>
</mask>
<g mask="url(#mask0)">
<path d="M96.3999 -118L203.4 -11.0001L96.3999 95.9999C96.3999 95.9999 77.8999 52.5 47.3999 37C16.8999 21.5 -10.6 -11.0001 -10.6 -11.0001L96.3999 -118Z" fill="#F5453D"/>
<path d="M78.8828 -123L183.658 -43.5009L98.2623 69.0464C98.2623 69.0464 54.7412 40.9968 66.7693 7.85935C78.7974 -25.2781 78.8828 -123 78.8828 -123Z" fill="#F54F47"/>
<path d="M34.7654 8.21933C23.6309 1.74691 18.3999 7.49859 12.8242 0.966507C4.72005 -8.5277 14.4428 -16.393 15.7916 -30.8593C22.7764 -36.6268 36.9335 -29.4045 42.7264 -22.3888C55.8999 -13.6801 45.8999 14.6917 34.7654 8.21933Z" fill="#F65D55"/>
<path d="M36.1039 16.7353L42.2242 8.20348L45.71 10.7041C46.7176 11.4268 47.3186 12.2703 47.5131 13.2344C47.7076 14.1985 47.4843 15.1274 46.8431 16.0212C46.1612 16.9719 45.3057 17.4782 44.2768 17.54C43.2537 17.5937 42.2424 17.2621 41.243 16.5452L39.817 15.5222L37.9809 18.0818L36.1039 16.7353ZM41.0148 13.8524L42.5018 14.9191C42.9649 15.2513 43.4139 15.3888 43.8488 15.3316C44.2918 15.2802 44.6532 15.0595 44.933 14.6694C45.2303 14.255 45.3235 13.842 45.2128 13.4302C45.1078 13.0104 44.8157 12.6285 44.3363 12.2846L42.8859 11.2441L41.0148 13.8524ZM50.3225 25.6613C49.176 25.8357 48.0989 25.5615 47.0913 24.8387C46.0838 24.1159 45.4759 23.1876 45.2678 22.0538C45.0737 20.9176 45.3205 19.8702 46.0083 18.9114C46.6903 17.9607 47.6046 17.3981 48.7511 17.2238C49.9058 17.0552 50.9869 17.3323 51.9945 18.0551C53.0021 18.7779 53.6029 19.7074 53.7971 20.8435C54.0052 21.9773 53.7653 23.0237 53.0775 23.9825C52.3955 24.9332 51.4772 25.4928 50.3225 25.6613ZM48.2611 23.2595C48.773 23.6267 49.3057 23.7505 49.8593 23.6307C50.4187 23.5028 50.8821 23.1829 51.2493 22.671C51.6048 22.1753 51.7454 21.6362 51.671 21.0537C51.6106 20.4688 51.3285 19.9957 50.8247 19.6343C50.3128 19.2671 49.7772 19.1474 49.2178 19.2753C48.6642 19.3951 48.2038 19.7109 47.8366 20.2229C47.481 20.7185 47.3334 21.2588 47.3938 21.8436C47.4682 22.4262 47.7573 22.8981 48.2611 23.2595ZM50.6856 30.1492L56.7709 21.6661L58.6236 22.9951L57.9503 23.9336C58.9775 23.5997 59.9095 23.733 60.7464 24.3334C61.559 24.9163 62.0392 25.7223 62.1871 26.7513C62.335 27.7804 62.0329 28.8191 61.281 29.8673C60.5349 30.9073 59.6508 31.5222 58.6286 31.712C57.6203 31.8994 56.7058 31.6988 55.8852 31.1101C55.0726 30.5272 54.6273 29.7154 54.5492 28.6749L52.5382 31.4782L50.6856 30.1492ZM55.7627 27.8839C55.8325 28.4386 56.0908 28.8762 56.5377 29.1968C56.9846 29.5174 57.4819 29.6218 58.0297 29.5102C58.5833 29.3904 59.0553 29.0583 59.4459 28.5139C59.8247 27.9858 59.9793 27.4444 59.9095 26.8897C59.8455 26.3269 59.5901 25.8853 59.1432 25.5647C58.6963 25.2441 58.1961 25.1437 57.6425 25.2635C57.1029 25.3809 56.6378 25.7119 56.2472 26.2563C55.8684 26.7844 55.7068 27.327 55.7627 27.8839ZM62.3913 35.7773C61.6925 35.276 61.3026 34.6701 61.2215 33.9597C61.1404 33.2493 61.3709 32.5162 61.913 31.7605L64.9469 27.5312L66.7995 28.8602L64.1853 32.5045C63.8763 32.9351 63.7378 33.3342 63.7696 33.7016C63.8014 34.069 63.9961 34.3809 64.3536 34.6374C64.7111 34.8939 65.073 34.9812 65.4394 34.8994C65.8139 34.8234 66.1556 34.5701 66.4645 34.1395L69.0787 30.4952L70.9314 31.8242L66.2449 38.3571L64.3923 37.0281L65.0568 36.1018C64.0111 36.4101 63.1226 36.3019 62.3913 35.7773ZM67.9884 39.6078L74.3711 30.7103L76.2237 32.0393L69.8411 40.9368L67.9884 39.6078ZM73.3462 43.6358C72.7043 43.1753 72.2963 42.6119 72.1221 41.9454C71.956 41.2848 72.1003 40.6376 72.555 40.0038C73.0504 39.3131 73.6591 38.9621 74.381 38.9508C75.1111 38.9453 75.8783 39.2311 76.6827 39.8081C77.2272 40.1987 77.6953 40.6699 78.0871 41.2217L78.1657 41.112C78.737 40.3157 78.5554 39.5824 77.6209 38.912C77.0603 38.5098 76.3745 38.1963 75.5635 37.9715L76.1146 36.2254C77.1615 36.4472 78.1319 36.8787 79.0257 37.5199C80.0089 38.2252 80.5694 38.9965 80.7072 39.8337C80.8404 40.6431 80.5777 41.5069 79.919 42.4251L77.1998 46.2156L75.4082 44.9304L75.9153 44.2234C75.0233 44.4204 74.1669 44.2245 73.3462 43.6358ZM74.8249 42.7582C75.2556 43.0672 75.6808 43.2122 76.1005 43.1933C76.526 43.1662 76.8582 42.9861 77.0972 42.653L77.3333 42.3239C77.1005 41.9108 76.7647 41.5468 76.3259 41.232C75.9196 40.9406 75.5444 40.7945 75.2003 40.7938C74.8702 40.7908 74.5973 40.9397 74.3816 41.2403C74.2068 41.4841 74.1603 41.7461 74.2423 42.0264C74.3301 42.2986 74.5243 42.5426 74.8249 42.7582ZM78.794 47.3592L83.4804 40.8263L85.3331 42.1553L84.3888 43.4716C85.5283 42.7753 86.5669 42.7942 87.5047 43.5285L86.1145 45.4664L86.017 45.3965C85.3832 44.9418 84.7517 44.7842 84.1225 44.9236C83.5073 45.0607 82.9257 45.5111 82.3778 46.2749L80.6466 48.6882L78.794 47.3592Z" fill="white"/>
</g>
</svg>
