<svg width="55" height="55" viewBox="0 0 55 55" fill="none" xmlns="http://www.w3.org/2000/svg">
<g clip-path="url(#clip0)">
<path d="M54.3699 25.9792C54.3692 25.9786 54.3687 25.9778 54.3679 25.9772L43.1419 14.8053C42.3009 13.9684 40.9406 13.9715 40.1035 14.8126C39.2665 15.6536 39.2697 17.0139 40.1107 17.8509L47.6478 25.3516H2.14844C0.961856 25.3516 0 26.3134 0 27.5C0 28.6866 0.961856 29.6484 2.14844 29.6484H47.6477L40.1108 37.1491C39.2698 37.9861 39.2666 39.3464 40.1036 40.1874C40.9407 41.0286 42.3011 41.0315 43.142 40.1947L54.368 29.0228C54.3687 29.0222 54.3692 29.0214 54.37 29.0208C55.2114 28.1809 55.2087 26.8163 54.3699 25.9792Z" fill="url(#paint0_linear)"/>
</g>
<defs>
<linearGradient id="paint0_linear" x1="0" y1="27.5" x2="55" y2="27.5" gradientUnits="userSpaceOnUse">
<stop stop-color="#80D8FF"/>
<stop offset="0.16" stop-color="#88D1FF"/>
<stop offset="0.413" stop-color="#9FBEFE"/>
<stop offset="0.725" stop-color="#C4A0FD"/>
<stop offset="1" stop-color="#EA80FC"/>
</linearGradient>
<clipPath id="clip0">
<rect width="55" height="55" fill="white"/>
</clipPath>
</defs>
</svg>
