<svg width="362" height="65" viewBox="0 0 362 65" fill="none" xmlns="http://www.w3.org/2000/svg">
<path d="M0.96 56V-3.8147e-06H16.48V22.72L35.76 -3.8147e-06H54.16L32.96 24.08L54.88 56H36.24L22.16 35.2L16.48 41.52V56H0.96ZM80.5975 57.04C73.7708 57.04 68.0908 54.8533 63.5575 50.48C59.0242 46.0533 56.7575 40.6933 56.7575 34.4C56.7575 28.16 59.0242 22.8267 63.5575 18.4C68.1442 13.9733 73.8775 11.76 80.7575 11.76C87.5842 11.76 93.2642 13.9733 97.7975 18.4C102.331 22.7733 104.598 28.1067 104.598 34.4C104.598 40.64 102.304 45.9733 97.7175 50.4C93.1842 54.8267 87.4775 57.04 80.5975 57.04ZM80.7575 44.16C83.4775 44.16 85.6642 43.2267 87.3175 41.36C88.9708 39.4933 89.7975 37.1733 89.7975 34.4C89.7975 31.7333 88.9175 29.44 87.1575 27.52C85.3975 25.6 83.2108 24.64 80.5975 24.64C77.8775 24.64 75.6908 25.5733 74.0375 27.44C72.3842 29.3067 71.5575 31.6267 71.5575 34.4C71.5575 37.0667 72.4375 39.36 74.1975 41.28C75.9575 43.2 78.1442 44.16 80.7575 44.16ZM111.018 56V12.72H126.458L136.458 27.68L146.538 12.72H161.978V56H146.778V34.64L136.218 49.36L125.978 34.96V56H111.018ZM182.558 56.96C178.291 56.96 174.798 55.7867 172.078 53.44C169.358 51.04 167.998 47.7067 167.998 43.44C167.998 39.0667 169.518 35.7067 172.558 33.36C175.598 31.0133 179.731 29.84 184.958 29.84C188.745 29.84 192.211 30.4 195.358 31.52V30.8C195.358 26.1067 192.478 23.76 186.718 23.76C182.825 23.76 178.851 24.56 174.798 26.16L171.678 15.44C177.118 13.2 182.958 12.08 189.198 12.08C196.665 12.08 202.158 13.84 205.678 17.36C208.771 20.4 210.318 24.9867 210.318 31.12V56H195.278V51.52C192.025 55.1467 187.785 56.96 182.558 56.96ZM187.998 47.44C190.238 47.44 192.051 46.8 193.438 45.52C194.825 44.1867 195.518 42.4533 195.518 40.32V38.32C193.758 37.5733 191.785 37.2 189.598 37.2C187.411 37.2 185.705 37.7067 184.478 38.72C183.251 39.68 182.638 41.0133 182.638 42.72C182.638 44.16 183.118 45.3067 184.078 46.16C185.091 47.0133 186.398 47.44 187.998 47.44ZM218.049 56V12.72H233.249V28.08H245.729V12.72H260.929V56H245.729V40.32H233.249V56H218.049ZM265.784 64.8V43.76H269.784C271.118 39.92 272.078 35.8933 272.664 31.68C273.304 27.4667 273.624 21.84 273.624 14.8V12.72H312.184V43.76H317.224L315.784 64.8H302.824V56H280.184L279.384 64.8H265.784ZM285.304 43.76H296.904V24.8H288.104V25.52C287.944 31.92 287.011 38 285.304 43.76ZM333.73 56.96C329.463 56.96 325.97 55.7867 323.25 53.44C320.53 51.04 319.17 47.7067 319.17 43.44C319.17 39.0667 320.69 35.7067 323.73 33.36C326.77 31.0133 330.903 29.84 336.13 29.84C339.917 29.84 343.383 30.4 346.53 31.52V30.8C346.53 26.1067 343.65 23.76 337.89 23.76C333.997 23.76 330.023 24.56 325.97 26.16L322.85 15.44C328.29 13.2 334.13 12.08 340.37 12.08C347.837 12.08 353.33 13.84 356.85 17.36C359.943 20.4 361.49 24.9867 361.49 31.12V56H346.45V51.52C343.197 55.1467 338.957 56.96 333.73 56.96ZM339.17 47.44C341.41 47.44 343.223 46.8 344.61 45.52C345.997 44.1867 346.69 42.4533 346.69 40.32V38.32C344.93 37.5733 342.957 37.2 340.77 37.2C338.583 37.2 336.877 37.7067 335.65 38.72C334.423 39.68 333.81 41.0133 333.81 42.72C333.81 44.16 334.29 45.3067 335.25 46.16C336.263 47.0133 337.57 47.44 339.17 47.44Z" fill="url(#paint0_angular)" fill-opacity="0.2"/>
<defs>
<radialGradient id="paint0_angular" cx="0" cy="0" r="1" gradientUnits="userSpaceOnUse" gradientTransform="translate(181 33.5) rotate(90) scale(38.5 185)">
<stop stop-color="#81356A"/>
<stop offset="1" stop-color="#6BC5DE"/>
</radialGradient>
</defs>
</svg>
